<svg xmlns="http://www.w3.org/2000/svg" viewBox="0 0 512 512" role="img" aria-label="TailTribe">
  <defs>
    <linearGradient id="g" x1="0" y1="0" x2="1" y2="1">
      <stop offset="0" stop-color="#10b981"/>
      <stop offset="1" stop-color="#2563eb"/>
    </linearGradient>
    <filter id="s" x="-20%" y="-20%" width="140%" height="140%">
      <feDropShadow dx="0" dy="10" stdDeviation="18" flood-color="#000" flood-opacity=".18"/>
    </filter>
  </defs>
  <rect x="48" y="48" width="416" height="416" rx="104" fill="url(#g)" filter="url(#s)"/>
  <g fill="#fff">
    <path d="M170 212c0 30-22 54-50 54s-50-24-50-54 22-54 50-54 50 24 50 54z" opacity=".95"/>
    <path d="M442 212c0 30-22 54-50 54s-50-24-50-54 22-54 50-54 50 24 50 54z" opacity=".95"/>
    <path d="M238 162c0 28-21 50-46 50s-46-22-46-50 21-50 46-50 46 22 46 50z" opacity=".95"/>
    <path d="M366 162c0 28-21 50-46 50s-46-22-46-50 21-50 46-50 46 22 46 50z" opacity=".95"/>
    <path d="M256 250c-64 0-120 56-120 126 0 52 40 88 120 88s120-36 120-88c0-70-56-126-120-126z" opacity=".95"/>
    <path d="M256 304c22 0 40 16 40 36 0 18-14 30-40 30s-40-12-40-30c0-20 18-36 40-36z"/>
    <text x="256" y="424" text-anchor="middle" font-family="system-ui,-apple-system,Segoe UI,Roboto,Arial" font-size="72" font-weight="800" opacity=".96">TT</text>
  </g>
</svg>

